<?xml version="1.0" encoding="utf-8"?>
<!-- Generator: Adobe Illustrator 21.0.0, SVG Export Plug-In . SVG Version: 6.00 Build 0)  -->
<svg version="1.1" id="Layer_1" xmlns="http://www.w3.org/2000/svg" xmlns:xlink="http://www.w3.org/1999/xlink" x="0px" y="0px"
	 viewBox="0 0 116 88" style="enable-background:new 0 0 116 88;" xml:space="preserve">
<style type="text/css">
	.st0{fill:none;}
	.st1{fill:#231F20;}
	.st2{fill:#FCDC00;}
	.st3{fill:#FFFFFF;}
	.st4{fill:#ED3224;}
</style>
<title>Logo</title>
<desc>Created with Sketch.</desc>
<g id="Pizzahouse">
	<g id="NEW-HEADER-with-2-main-numbers-Copy" transform="translate(-72.000000, -54.000000)">
		<g id="Group-3">
			<g id="Stacked-Group-5" transform="translate(72.000000, 40.000000)">
				<g id="Logo">
					<rect id="Rectangle-5" class="st0"/>
					<g id="Group" transform="translate(0.000000, 14.000000)">
						<path id="Path" class="st1" d="M115.1,51.9c-0.1-1.8-1.1-2.6-2.1-2.7c-0.1,0-0.3,0-0.4,0c-0.2-0.8-0.4-1.6-0.6-2.4
							c-0.2-0.7-3.3-14.4-3.8-14.8c-0.4-0.5-1.1-0.7-1.7-0.7h-0.2c-0.2,0-7.3,0.6-10.9,0.9c-0.2,0-0.4,0-0.5,0s-0.2,0-0.3,0
							c-1-2.6-2.1-5.2-3.5-7.6c0,0-1.6-2.4-2.4-3.5c-2.4-3.3-5.2-6.2-8.5-8.6c-2.2-1.6-4.6-3.1-7.1-4.3c-0.6-0.3-0.6-0.3-0.3-0.9
							c0.5-0.9,0.9-1.8,1.4-2.7C74.4,4.3,74.3,4.2,74,4c-8.8-4-18.6-5-28-2.9c-1.1,0.2-2.1,0.5-3.2,0.9c-2.1,0.6-4.1,1.2-6.1,2
							l2,3.9c0,0.1-0.1,0.2-0.2,0.2c-3.7,1.8-7.1,4.1-10.2,6.8c-0.3,0.2-0.5,0.5-0.8,0.7c-4.5,4.3-8.4,10.2-10.6,16.2
							C12.1,31.3,3.6,30.4,3,30.4c-1,0-1.8,0.3-2.3,0.9c-0.4,0.5-0.6,1.2-0.6,1.9c0.1,1,0.2,5,0.8,5.6c0.4,0.4,0.9,0.6,1.5,0.6
							c-0.1,1.7,0,8.8,0,9.6c-0.5,0.1-1.5,0.2-2,0.9s-0.1,6,0.1,6.5c0.6,1.4,1.8,1.4,2.7,1.4c2.2,0,11.6-1,12.2-1.3l0.1-0.1
							c0.1-0.1,0.3-0.2,0.4-0.3l0.7,2.1c7,22,30.2,33.9,51.8,26.9c12.9-4.2,22.8-14.4,26.7-27.4c0.1-0.4,0.2-0.9,0.2-1.3h1.5
							c0.4,0,0.8-0.1,1.1-0.4c0.6-0.4,0.9-1.1,0.9-1.9c0.2-0.7,0.3-1.3,0.4-2c0-0.2,0-0.3,0.1-0.5c0.4,0,0.7,0,1.1,0.1
							c0,0.2,0.1,0.5,0.1,0.7c0.1,0.5,0.2,0.9,0.2,1.4c0.2,2.9,1.7,3.4,2.6,3.4l1.1,0.1c5.3,0.7,7.4,1,8,1c0.2,0,0.8,0.1,1.2,0
							C115.4,57.5,115.1,52.5,115.1,51.9z"/>
						<ellipse id="Oval" class="st2" cx="55.7" cy="45.7" rx="39.4" ry="39.5"/>
						<path id="Path_1_" class="st0" d="M76.9,16.9c15.9,11.9,19.2,34.5,7.2,50.5c-2,2.7-4.5,5.2-7.2,7.2
							c15.9-11.8,19.3-34.2,7.6-50.2C82.4,21.6,79.8,19,76.9,16.9z"/>
						<path id="Path_2_" class="st3" d="M91.5,45.7C91.4,26,75.3,10,55.6,10.1c-19.7,0.1-35.6,16.2-35.5,36
							C20.2,65.9,36.3,81.8,56,81.7c7.6,0,15-2.5,21.1-7C86.2,67.9,91.5,57.1,91.5,45.7z"/>
						<path id="Shape" d="M55.7,8.9C35.4,8.9,19,25.4,19,45.8s16.5,36.9,36.7,36.8c20.3,0,36.7-16.5,36.7-36.9
							C92.4,25.4,76,8.9,55.7,8.9z M76.9,74.6C61,86.4,38.6,83,26.9,67s-8.3-38.4,7.5-50.2s38.3-8.4,50,7.6c4.5,6.2,7,13.6,7,21.3
							C91.5,57.1,86.1,67.9,76.9,74.6z"/>
						<path id="Path_3_" class="st1" d="M91.9,57.6c-0.2-0.1-0.3-0.3-0.2-0.5l0,0c0.1-0.2,0.3-0.3,0.5-0.2c0.2,0.1,0.3,0.3,0.2,0.5
							S92.1,57.7,91.9,57.6z"/>
						<path id="Path_4_" class="st1" d="M91.2,59.7c-0.2-0.1-0.3-0.3-0.2-0.5s0.3-0.3,0.5-0.2c0.2,0.1,0.3,0.3,0.2,0.5l0,0
							C91.6,59.6,91.4,59.7,91.2,59.7z"/>
						<path id="Path_5_" class="st1" d="M90.4,61.6c-0.2-0.1-0.3-0.3-0.2-0.5c0.1-0.2,0.3-0.3,0.5-0.2c0.2,0.1,0.3,0.3,0.2,0.5l0,0
							C90.8,61.6,90.6,61.7,90.4,61.6L90.4,61.6z"/>
						<path id="Path_102_" class="st1" d="M89.5,63.4c-0.2-0.1-0.3-0.3-0.2-0.5c0.1-0.2,0.3-0.3,0.5-0.2c0.2,0.1,0.3,0.3,0.2,0.5
							l0,0C89.9,63.4,89.7,63.5,89.5,63.4L89.5,63.4z"/>
						<path id="Path_6_" class="st1" d="M88.4,65.4c-0.2-0.1-0.2-0.3-0.1-0.5c0.1-0.2,0.3-0.2,0.5-0.1c0.2,0.1,0.2,0.3,0.1,0.5l0,0
							C88.9,65.4,88.6,65.5,88.4,65.4L88.4,65.4z"/>
						<path id="Path_7_" class="st1" d="M87.3,67.2c-0.2-0.1-0.2-0.3-0.1-0.5c0.1-0.2,0.3-0.2,0.5-0.1l0,0c0.2,0.1,0.2,0.4,0.1,0.5
							C87.7,67.3,87.5,67.3,87.3,67.2L87.3,67.2z"/>
						<path id="Path_8_" class="st1" d="M86.1,68.9c-0.2-0.1-0.2-0.4-0.1-0.5c0.1-0.2,0.4-0.2,0.5-0.1l0,0c0.2,0.1,0.2,0.4,0.1,0.5
							C86.5,69,86.3,69.1,86.1,68.9L86.1,68.9z"/>
						<path id="Path_9_" class="st1" d="M84.7,70.6c-0.2-0.1-0.2-0.4,0-0.5l0,0c0.1-0.2,0.4-0.2,0.5-0.1c0.2,0.1,0.2,0.4,0.1,0.5
							l0,0C85.2,70.7,84.9,70.7,84.7,70.6z"/>
						<path id="Path_10_" class="st1" d="M83.3,72.2c-0.2-0.1-0.2-0.4,0-0.5c0.1-0.1,0.4-0.2,0.5,0c0.2,0.1,0.2,0.4,0,0.5l0,0
							C83.7,72.3,83.5,72.3,83.3,72.2z"/>
						<path id="Path_103_" class="st1" d="M81.7,74c-0.2-0.1-0.2-0.4,0-0.5c0.1-0.1,0.4-0.2,0.5,0c0.2,0.1,0.2,0.4,0,0.5l0,0
							C82.1,74.1,81.9,74.1,81.7,74z"/>
						<path id="Path_104_" class="st1" d="M80.2,75.2c-0.2-0.1-0.2-0.4,0-0.5c0.1-0.1,0.4-0.2,0.5,0c0.2,0.1,0.2,0.4,0,0.5l0,0
							C80.6,75.3,80.4,75.3,80.2,75.2z"/>
						<path id="Path_11_" class="st1" d="M78.6,76.5c-0.1-0.2-0.1-0.4,0.1-0.5c0.2-0.1,0.4-0.1,0.5,0.1c0.1,0.2,0.1,0.4-0.1,0.5
							C79,76.7,78.7,76.6,78.6,76.5L78.6,76.5z"/>
						<path id="Path_12_" class="st1" d="M76.9,77.7c-0.1-0.2-0.1-0.4,0.1-0.5s0.4-0.1,0.5,0.1l0,0c0.1,0.2,0.1,0.4-0.1,0.5
							C77.2,77.9,77,77.9,76.9,77.7L76.9,77.7z"/>
						<path id="Path_13_" class="st1" d="M75.1,78.8c-0.1-0.2,0-0.4,0.1-0.5l0,0c0.2-0.1,0.4-0.1,0.5,0.1c0.1,0.2,0.1,0.4-0.1,0.5
							C75.4,79.1,75.2,79,75.1,78.8z"/>
						<path id="Path_14_" class="st1" d="M73.2,79.9c-0.1-0.2,0-0.4,0.2-0.5l0,0c0.2-0.1,0.4,0,0.5,0.2s0,0.4-0.1,0.5l0,0
							C73.5,80.1,73.3,80.1,73.2,79.9z"/>
						<path id="Path_15_" class="st1" d="M71.3,80.8c-0.1-0.2,0-0.4,0.2-0.5l0,0c0.2-0.1,0.4,0,0.5,0.2c0.1,0.2,0,0.4-0.2,0.5l0,0
							C71.6,81.1,71.4,81,71.3,80.8z"/>
						<path id="Path_105_" class="st1" d="M69.5,81.6c-0.1-0.2,0-0.4,0.2-0.5l0,0c0.2-0.1,0.4,0,0.5,0.2c0.1,0.2,0,0.4-0.2,0.5l0,0
							C69.8,81.9,69.6,81.8,69.5,81.6z"/>
						<path id="Path_16_" class="st1" d="M67.4,82.3c-0.1-0.2,0-0.4,0.2-0.5c0.2-0.1,0.4,0,0.5,0.2c0.1,0.2,0,0.4-0.2,0.5
							C67.6,82.6,67.4,82.5,67.4,82.3L67.4,82.3z"/>
						<path id="Path_17_" class="st1" d="M65.3,82.9c-0.1-0.2,0.1-0.4,0.3-0.5c0.2-0.1,0.4,0.1,0.5,0.3c0.1,0.2-0.1,0.4-0.3,0.5
							C65.6,83.3,65.4,83.1,65.3,82.9L65.3,82.9z"/>
						<path id="Path_18_" class="st1" d="M63.2,83.4c0-0.2,0.1-0.4,0.3-0.5c0.2,0,0.4,0.1,0.4,0.3l0,0c0,0.2-0.1,0.4-0.3,0.5
							C63.5,83.8,63.3,83.6,63.2,83.4L63.2,83.4z"/>
						<path id="Path_19_" class="st1" d="M61.2,83.8c0-0.2,0.1-0.4,0.4-0.4c0.2,0,0.3,0.1,0.4,0.3c0.1,0.2-0.1,0.4-0.3,0.5
							C61.4,84.2,61.2,84,61.2,83.8L61.2,83.8z"/>
						<path id="Path_20_" class="st1" d="M59,84c0-0.2,0.1-0.4,0.3-0.4l0,0c0.2,0,0.4,0.1,0.4,0.3c0,0.2-0.1,0.4-0.3,0.4l0,0
							C59.2,84.4,59.1,84.2,59,84z"/>
						<path id="Path_21_" class="st1" d="M56.9,84.1c0-0.2,0.2-0.4,0.4-0.4l0,0c0.2,0,0.4,0.2,0.4,0.4s-0.1,0.4-0.4,0.4l0,0
							C57.1,84.5,56.9,84.4,56.9,84.1L56.9,84.1z"/>
						<path id="Path_22_" class="st1" d="M54.8,84.1c0-0.2,0.2-0.4,0.4-0.4l0,0c0.2,0,0.4,0.2,0.4,0.4s-0.2,0.4-0.4,0.4l0,0
							C55,84.5,54.8,84.4,54.8,84.1C54.8,84.2,54.8,84.2,54.8,84.1z"/>
						<path id="Path_23_" class="st1" d="M52.7,84c0-0.2,0.2-0.4,0.4-0.4c0.2,0,0.4,0.2,0.4,0.4c0,0.2-0.2,0.4-0.4,0.4l0,0
							C52.8,84.4,52.7,84.2,52.7,84L52.7,84z"/>
						<path id="Path_24_" class="st1" d="M50.6,83.8c0-0.2,0.2-0.4,0.4-0.4s0.4,0.2,0.4,0.4c0,0,0,0,0,0.1c0,0.2-0.2,0.4-0.4,0.4
							C50.7,84.3,50.6,84.1,50.6,83.8C50.6,83.9,50.6,83.8,50.6,83.8z"/>
						<path id="Path_106_" class="st1" d="M48.7,83.5c0-0.2,0.2-0.4,0.4-0.4s0.4,0.2,0.4,0.4c0,0,0,0,0,0.1c0,0.2-0.2,0.4-0.4,0.4
							C48.8,84,48.7,83.8,48.7,83.5C48.7,83.6,48.7,83.5,48.7,83.5z"/>
						<path id="Path_25_" class="st1" d="M46.4,83c0-0.2,0.3-0.3,0.5-0.3c0.2,0.1,0.3,0.3,0.3,0.5c-0.1,0.2-0.2,0.3-0.4,0.3
							C46.5,83.4,46.4,83.2,46.4,83L46.4,83z"/>
						<path id="Path_26_" class="st1" d="M44.4,82.4c0.1-0.2,0.3-0.3,0.5-0.3c0.2,0.1,0.3,0.3,0.3,0.5c-0.1,0.2-0.3,0.3-0.5,0.3
							C44.4,82.8,44.3,82.6,44.4,82.4L44.4,82.4z"/>
						<path id="Path_27_" class="st1" d="M42.3,81.7c0.1-0.2,0.3-0.3,0.5-0.2s0.3,0.3,0.2,0.5l0,0c-0.1,0.2-0.3,0.3-0.5,0.2
							C42.4,82.2,42.3,81.9,42.3,81.7L42.3,81.7z"/>
						<path id="Path_28_" class="st1" d="M40.4,80.9c0.1-0.2,0.3-0.3,0.5-0.2l0,0c0.2,0.1,0.3,0.3,0.2,0.5c-0.1,0.2-0.3,0.3-0.5,0.2
							l0,0C40.4,81.3,40.3,81.1,40.4,80.9z"/>
						<path id="Path_29_" class="st1" d="M38.5,80c0.1-0.2,0.3-0.3,0.5-0.2l0,0c0.2,0.1,0.3,0.3,0.2,0.5c-0.1,0.2-0.3,0.3-0.5,0.2
							l0,0C38.5,80.4,38.4,80.2,38.5,80z"/>
						<path id="Path_30_" class="st1" d="M36.6,79c0.1-0.2,0.3-0.2,0.5-0.1c0.2,0.1,0.2,0.3,0.1,0.5c-0.1,0.2-0.3,0.2-0.5,0.1l0,0
							C36.6,79.4,36.5,79.2,36.6,79L36.6,79z"/>
						<path id="Path_107_" class="st1" d="M34.9,78c0.1-0.2,0.3-0.2,0.5-0.1c0.2,0.1,0.2,0.3,0.1,0.5c-0.1,0.2-0.3,0.2-0.5,0.1l0,0
							C34.9,78.4,34.8,78.2,34.9,78L34.9,78z"/>
						<path id="Path_31_" class="st1" d="M33.1,76.6c0.1-0.2,0.4-0.2,0.5-0.1c0.2,0.1,0.2,0.4,0.1,0.5c-0.1,0.2-0.3,0.2-0.5,0.1
							C33,77.1,32.9,76.8,33.1,76.6L33.1,76.6z"/>
						<path id="Path_32_" class="st1" d="M31.4,75.3c0.1-0.2,0.4-0.2,0.5-0.1c0.2,0.1,0.2,0.4,0.1,0.5l0,0c-0.1,0.2-0.4,0.2-0.5,0.1
							C31.3,75.7,31.3,75.5,31.4,75.3L31.4,75.3z"/>
						<path id="Path_33_" class="st1" d="M29.8,73.9c0.2-0.1,0.4-0.1,0.5,0c0.1,0.1,0.1,0.3,0,0.5c-0.1,0.2-0.4,0.2-0.5,0.1
							C29.7,74.4,29.6,74.1,29.8,73.9L29.8,73.9z"/>
						<path id="Path_34_" class="st1" d="M28.3,72.4c0.1-0.1,0.4-0.1,0.5,0c0.1,0.2,0.1,0.4,0,0.5c-0.1,0.1-0.4,0.2-0.5,0l0,0
							C28.1,72.8,28.1,72.6,28.3,72.4z"/>
						<path id="Path_35_" class="st1" d="M26.9,70.8c0.2-0.1,0.4-0.1,0.5,0c0.1,0.2,0.1,0.4,0,0.5c-0.2,0.1-0.4,0.1-0.5,0l0,0
							C26.7,71.2,26.7,71,26.9,70.8z"/>
						<path id="Path_108_" class="st1" d="M25.7,69.4c0.2-0.1,0.4-0.1,0.5,0c0.1,0.2,0.1,0.4,0,0.5c-0.2,0.1-0.4,0.1-0.5,0l0,0
							C25.5,69.8,25.5,69.6,25.7,69.4z"/>
						<path id="Path_36_" class="st1" d="M24.3,67.5c0.2-0.1,0.4-0.1,0.5,0.1c0.1,0.2,0.1,0.4-0.1,0.5c-0.2,0.1-0.4,0.1-0.5-0.1l0,0
							C24.1,67.8,24.1,67.6,24.3,67.5L24.3,67.5z"/>
						<path id="Path_37_" class="st1" d="M23.1,65.7c0.2-0.1,0.4-0.1,0.5,0.1c0.1,0.2,0.1,0.4-0.1,0.5l0,0c-0.2,0.1-0.4,0.1-0.5-0.1
							C22.9,66,22.9,65.8,23.1,65.7L23.1,65.7z"/>
						<path id="Path_38_" class="st1" d="M22.1,63.8c0.2-0.1,0.4,0,0.5,0.2c0.1,0.2,0,0.4-0.1,0.5l0,0c-0.2,0.1-0.4,0-0.5-0.1
							C21.8,64.1,21.9,63.9,22.1,63.8L22.1,63.8z"/>
						<path id="Path_39_" class="st1" d="M21.1,61.9c0.2-0.1,0.4,0,0.5,0.2l0,0c0.1,0.2,0,0.4-0.2,0.5c-0.2,0.1-0.4,0-0.5-0.2l0,0
							C20.9,62.2,21,62,21.1,61.9z"/>
						<path id="Path_40_" class="st1" d="M20.3,59.9c0.2-0.1,0.4,0,0.5,0.2l0,0c0.1,0.2,0,0.4-0.2,0.5c-0.2,0.1-0.4,0-0.5-0.2l0,0
							C20,60.2,20.1,60,20.3,59.9z"/>
						<path id="Path_41_" class="st1" d="M19.6,57.9c0.2-0.1,0.4,0,0.5,0.2s0,0.4-0.2,0.5c-0.2,0.1-0.4,0-0.5-0.2l0,0
							C19.3,58.2,19.4,58,19.6,57.9z"/>
						<path id="Path_109_" class="st1" d="M19,55.7c0.2-0.1,0.4,0,0.5,0.2s0,0.4-0.2,0.5c-0.2,0.1-0.4,0-0.5-0.2l0,0
							C18.7,56,18.8,55.8,19,55.7z"/>
						<path id="Path_42_" class="st1" d="M18.5,53.8c0.2,0,0.4,0.1,0.5,0.3c0,0.2-0.1,0.4-0.3,0.4c-0.2,0-0.4-0.1-0.4-0.3
							C18.1,54.1,18.3,53.9,18.5,53.8L18.5,53.8z"/>
						<path id="Path_43_" class="st1" d="M18.1,51.7c0.2,0,0.4,0.1,0.4,0.3c0,0.2-0.1,0.4-0.3,0.4l0,0c-0.2,0-0.4-0.1-0.4-0.3l0,0
							C17.7,52,17.9,51.8,18.1,51.7L18.1,51.7z"/>
						<path id="Path_44_" class="st1" d="M17.8,49.6c0.2,0,0.4,0.1,0.4,0.3s-0.1,0.4-0.3,0.4c-0.2,0-0.4-0.1-0.4-0.3
							C17.5,49.8,17.6,49.7,17.8,49.6z"/>
						<path id="Path_45_" class="st1" d="M20.6,30.8c0.2,0.1,0.3,0.3,0.2,0.5c-0.1,0.2-0.3,0.3-0.5,0.2l0,0c-0.2,0-0.3-0.3-0.2-0.4
							C20.2,30.9,20.4,30.8,20.6,30.8L20.6,30.8z"/>
						<path id="Path_46_" class="st1" d="M21.5,28.9c0.2,0.1,0.3,0.3,0.2,0.5c-0.1,0.2-0.3,0.3-0.5,0.2l0,0
							c-0.2-0.1-0.3-0.3-0.2-0.5C21,28.9,21.3,28.8,21.5,28.9L21.5,28.9z"/>
						<path id="Path_47_" class="st1" d="M22.4,27c0.2,0.1,0.2,0.3,0.1,0.5l0,0c-0.1,0.2-0.3,0.3-0.5,0.2c-0.2-0.1-0.3-0.3-0.2-0.5
							l0,0C22,27,22.3,26.9,22.4,27z"/>
						<path id="Path_48_" class="st1" d="M23.5,25.2c0.2,0.1,0.2,0.3,0.1,0.5l0,0c-0.1,0.2-0.3,0.2-0.5,0.1
							c-0.2-0.1-0.2-0.3-0.1-0.5l0,0C23.1,25.1,23.4,25.1,23.5,25.2z"/>
						<path id="Path_49_" class="st1" d="M24.7,23.4c0.2,0.1,0.2,0.4,0.1,0.5c-0.1,0.2-0.4,0.2-0.5,0.1c-0.2-0.1-0.2-0.3-0.1-0.5
							l0,0C24.3,23.3,24.5,23.3,24.7,23.4L24.7,23.4z"/>
						<path id="Path_98_" class="st1" d="M26.1,21.8c0.2,0.1,0.2,0.4,0.1,0.5c-0.1,0.2-0.4,0.2-0.5,0.1c-0.2-0.1-0.2-0.3-0.1-0.5
							l0,0C25.7,21.7,25.9,21.7,26.1,21.8L26.1,21.8z"/>
						<path id="Path_50_" class="st1" d="M27.4,20.1c0.2,0.1,0.2,0.4,0,0.5c-0.1,0.2-0.4,0.2-0.5,0c-0.1-0.2-0.2-0.4,0-0.5l0,0
							C27,19.9,27.2,19.9,27.4,20.1L27.4,20.1z"/>
						<path id="Path_51_" class="st1" d="M28.8,18.5c0.1,0.2,0.1,0.4,0,0.5c-0.1,0.1-0.4,0.1-0.5,0c-0.1-0.1-0.1-0.4,0-0.5
							C28.4,18.4,28.7,18.4,28.8,18.5L28.8,18.5z"/>
						<path id="Path_52_" class="st1" d="M30.4,17.1c0.1,0.2,0.1,0.4,0,0.5c-0.2,0.1-0.4,0.1-0.5,0l0,0c-0.2-0.1-0.2-0.4,0-0.5
							C29.9,16.9,30.2,16.9,30.4,17.1C30.3,17,30.3,17,30.4,17.1L30.4,17.1z"/>
						<path id="Path_53_" class="st1" d="M32,15.7c0.1,0.2,0.1,0.4-0.1,0.5l0,0c-0.2,0.1-0.4,0.1-0.5-0.1c-0.1-0.2-0.1-0.4,0-0.5
							l0,0C31.6,15.5,31.9,15.5,32,15.7z"/>
						<path id="Path_99_" class="st1" d="M35.5,13.3c0.1,0.2,0.1,0.4-0.1,0.5l0,0c-0.2,0.1-0.4,0.1-0.5-0.1c-0.1-0.2-0.1-0.4,0-0.5
							l0,0C35.1,13.1,35.4,13.1,35.5,13.3z"/>
						<path id="Path_54_" class="st1" d="M33.7,14.4c0.1,0.2,0.1,0.4-0.1,0.5c-0.2,0.1-0.4,0.1-0.5-0.1c-0.1-0.2-0.1-0.4,0.1-0.5
							l0,0C33.3,14.2,33.6,14.2,33.7,14.4L33.7,14.4z"/>
						<path id="Path_55_" class="st1" d="M37.3,12.1c0.1,0.2,0,0.4-0.1,0.5c-0.2,0.1-0.4,0-0.5-0.1c-0.1-0.2,0-0.4,0.1-0.5l0,0
							C36.9,11.9,37.2,11.9,37.3,12.1L37.3,12.1z"/>
						<path id="Path_56_" class="st1" d="M39.1,11.1c0.1,0.2,0,0.4-0.2,0.5c-0.2,0.1-0.4,0-0.5-0.2l0,0c-0.1-0.2,0-0.4,0.2-0.5
							C38.8,10.9,39,10.9,39.1,11.1L39.1,11.1z"/>
						<path id="Path_57_" class="st1" d="M72,11c-0.1,0.2-0.3,0.3-0.5,0.2l0,0c-0.2-0.1-0.3-0.3-0.2-0.5c0.1-0.2,0.3-0.3,0.5-0.2
							C72,10.6,72.1,10.8,72,11L72,11z"/>
						<path id="Path_58_" class="st1" d="M73.9,12c-0.1,0.2-0.3,0.3-0.5,0.2c-0.2-0.1-0.3-0.3-0.2-0.5l0,0c0.1-0.2,0.3-0.3,0.5-0.2
							C73.9,11.6,74,11.8,73.9,12L73.9,12z"/>
						<path id="Path_59_" class="st1" d="M75.7,13c-0.1,0.2-0.3,0.2-0.5,0.1C75,13,75,12.8,75.1,12.6l0,0c0.1-0.2,0.3-0.2,0.5-0.1
							C75.8,12.6,75.8,12.9,75.7,13z"/>
						<path id="Path_60_" class="st1" d="M77.5,14.2c-0.1,0.2-0.3,0.2-0.5,0.1l0,0c-0.2-0.1-0.2-0.4-0.1-0.5
							c0.1-0.2,0.3-0.2,0.5-0.1l0,0C77.6,13.8,77.6,14.1,77.5,14.2z"/>
						<path id="Path_61_" class="st1" d="M79.2,15.5c-0.1,0.2-0.4,0.2-0.5,0.1l0,0c-0.2-0.1-0.2-0.4-0.1-0.5
							c0.1-0.2,0.4-0.2,0.5-0.1l0,0C79.3,15.1,79.3,15.3,79.2,15.5L79.2,15.5z"/>
						<path id="Path_100_" class="st1" d="M80.8,16.7c-0.1,0.2-0.4,0.2-0.5,0.1l0,0c-0.2-0.1-0.2-0.4-0.1-0.5
							c0.1-0.2,0.4-0.2,0.5-0.1l0,0C80.9,16.3,80.9,16.5,80.8,16.7L80.8,16.7z"/>
						<path id="Path_62_" class="st1" d="M82.4,18.3c-0.1,0.1-0.4,0.1-0.5,0c-0.2-0.1-0.2-0.4,0-0.5c0.1-0.2,0.4-0.2,0.5,0l0,0
							C82.5,17.9,82.5,18.1,82.4,18.3L82.4,18.3z"/>
						<path id="Path_63_" class="st1" d="M83.9,19.9c-0.2,0.1-0.4,0.1-0.5,0c-0.1-0.2-0.1-0.4,0-0.5c0.2-0.1,0.4-0.1,0.5,0
							S84,19.7,83.9,19.9C83.9,19.8,83.9,19.8,83.9,19.9z"/>
						<path id="Path_64_" class="st1" d="M85.2,21.5c-0.2,0.1-0.4,0.1-0.5-0.1c-0.1-0.2-0.1-0.4,0-0.5l0,0c0.2-0.1,0.4-0.1,0.5,0
							C85.4,21.1,85.4,21.3,85.2,21.5L85.2,21.5z"/>
						<path id="Path_65_" class="st1" d="M86.5,23.2c-0.2,0.1-0.4,0.1-0.5-0.1l0,0c-0.1-0.2-0.1-0.4,0.1-0.5
							c0.2-0.1,0.4-0.1,0.5,0.1C86.7,22.8,86.7,23,86.5,23.2z"/>
						<path id="Path_66_" class="st1" d="M87.7,24.9c-0.2,0.1-0.4,0.1-0.5-0.1l0,0c-0.1-0.2-0.1-0.4,0.1-0.5
							c0.2-0.1,0.4-0.1,0.5,0.1l0,0C87.9,24.6,87.9,24.8,87.7,24.9z"/>
						<path id="Path_67_" class="st1" d="M88.8,26.7c-0.2,0.1-0.4,0-0.5-0.1c-0.1-0.2,0-0.4,0.1-0.5c0.2-0.1,0.4,0,0.5,0.1l0,0
							C89.1,26.4,89,26.6,88.8,26.7L88.8,26.7z"/>
						<path id="Path_101_" class="st1" d="M90,28.7c-0.2,0.1-0.4,0-0.5-0.1c-0.1-0.2,0-0.4,0.1-0.5c0.2-0.1,0.4,0,0.5,0.1l0,0
							C90.3,28.4,90.2,28.6,90,28.7L90,28.7z"/>
						<path id="Path_68_" class="st1" d="M90.7,30.6c-0.2,0.1-0.4,0-0.5-0.2c-0.1-0.2,0-0.4,0.2-0.5c0.2-0.1,0.4,0,0.5,0.2
							C91,30.2,90.9,30.5,90.7,30.6L90.7,30.6z"/>
						<path id="Path_69_" class="st1" d="M91.5,32.5c-0.2,0.1-0.4,0-0.5-0.2c-0.1-0.2,0-0.4,0.2-0.5c0.2-0.1,0.4,0,0.5,0.2
							C91.8,32.2,91.7,32.5,91.5,32.5L91.5,32.5z"/>
						<path id="Path_70_" class="st1" d="M74.6,53.4L74.6,53.4L74.6,53.4C74.6,53.5,74.6,53.5,74.6,53.4"/>
						<path id="Path_71_" class="st1" d="M61.8,53.5C61.8,53.5,61.8,53.6,61.8,53.5L61.8,53.5"/>
						<polygon id="Path_72_" class="st1" points="30,28.9 30.4,28.9 30.4,26 30,26 30,25 34.4,25 34.4,26.5 33.3,26.5 33.3,26 
							32.3,26 32.3,27 33.1,27 33.1,28 32.2,28 32.2,29 33.2,29 33.2,28.4 34.3,28.4 34.3,30 29.9,30 29.9,28.9 						"/>
						<path id="Path_73_" class="st1" d="M34.8,28.2h1.1c0,0.6,0.3,0.8,0.7,0.8c0.4,0,0.5-0.2,0.5-0.4c0-0.3-0.4-0.5-0.7-0.6
							l-0.8-0.3c-0.5-0.2-0.9-0.7-0.9-1.3c0-0.8,0.6-1.5,1.7-1.5c0.5,0,0.9,0.1,1.3,0.4V25h1.1v1.4h-1.1c0-0.3-0.3-0.6-0.7-0.6
							c-0.3,0-0.4,0.1-0.4,0.4c0,0.2,0.2,0.3,0.6,0.5l0.8,0.4c0.6,0.3,1.1,0.6,1.1,1.4c0,0.8-0.5,1.5-1.8,1.5
							c-0.5,0-0.9-0.1-1.3-0.4v0.3h-1.1v-1.7H34.8z"/>
						<polygon id="Path_74_" class="st1" points="43,29.9 40.4,29.9 40.4,28.9 40.8,28.9 40.8,26 40.4,26 40.4,27.2 39.4,27.2 
							39.4,25 44.1,25 44.1,27.2 43.1,27.2 43.1,26 42.7,26 42.7,28.9 43.1,28.9 43.1,29.9 						"/>
						<polygon id="Path_75_" class="st1" points="43.7,28.6 45.3,28.6 45.3,29.9 43.7,29.9 						"/>
						<path id="Path_76_" class="st1" d="M65.9,28.8c0.1-0.4,0.4-0.7,0.6-1c0.2-0.2,0.5-0.5,0.8-0.6c0.2-0.1,0.5-0.3,0.7-0.5
							c0.1-0.1,0.2-0.3,0.2-0.5c0-0.3-0.2-0.5-0.5-0.5l0,0c-0.3,0-0.6,0.3-0.6,0.6c0,0,0,0,0,0.1h-1.3c0-0.5,0.2-1,0.7-1.2
							c0.4-0.2,0.8-0.3,1.2-0.3c1.4,0,2,0.7,2,1.5c0,0.3-0.1,0.6-0.2,0.8c-0.2,0.3-0.5,0.5-1.1,0.7c-0.5,0.3-1,0.4-1.2,1h1.6v-0.6h1
							v1.6h-4C65.7,29.4,65.7,29.1,65.9,28.8z"/>
						<path id="Shape_1_" class="st1" d="M70.2,27.3c0-1.9,1-2.5,2-2.5s2,0.7,2,2.5c0,1.9-1,2.5-2,2.5S70.2,29.2,70.2,27.3z
							 M72.7,27.3c0-0.6,0-1.6-0.5-1.6s-0.5,1-0.5,1.6c0,0.5,0,1.6,0.5,1.6S72.7,27.8,72.7,27.3L72.7,27.3z"/>
						<path id="Shape_2_" class="st1" d="M74.6,27.3c0-1.9,1-2.5,2-2.5s2,0.7,2,2.5c0,1.9-1,2.5-2,2.5S74.6,29.2,74.6,27.3z
							 M77.1,27.3c0-0.6,0-1.6-0.5-1.6s-0.5,1-0.5,1.6c0,0.5,0,1.6,0.5,1.6S77.1,27.8,77.1,27.3z"/>
						<path id="Shape_3_" class="st1" d="M79.1,26.1c0-0.7,0.6-1.4,1.9-1.4s1.9,0.7,1.9,1.4c0,0.5-0.3,0.9-0.7,1
							c0.5,0.2,0.9,0.6,0.8,1.2c0,0.8-0.6,1.5-2.1,1.5s-2.1-0.6-2.1-1.5c0-0.5,0.3-1,0.8-1.2C79.4,27,79.1,26.6,79.1,26.1z M81,29
							c0.3,0,0.6-0.3,0.6-0.7l0,0c0-0.3-0.3-0.6-0.6-0.6s-0.6,0.3-0.6,0.6C80.4,28.7,80.6,29,81,29L81,29L81,29z M81,26.8
							c0.3,0,0.6-0.2,0.6-0.6c0-0.3-0.2-0.6-0.6-0.6c-0.3,0-0.6,0.2-0.6,0.6l0,0C80.4,26.6,80.7,26.8,81,26.8L81,26.8z"/>
						<polygon id="Path_77_" class="st1" points="35,59.6 35.5,59.6 35.5,61.5 33.5,61.5 33.5,59.6 34.1,59.6 34.1,57.6 29,57.6 
							29,59.6 29.7,59.6 29.7,65.6 29,65.6 29,67.6 34.1,67.6 34.1,65.6 33.5,65.6 33.5,63.5 35.5,63.5 35.5,65.6 35,65.6 35,65.6 
							35,67.6 35,67.6 36.2,67.6 36.4,67.6 40.1,67.6 40.1,65.6 39.5,65.6 39.5,59.6 40.1,59.6 40.1,57.6 35,57.6 						"/>
						<path id="Path_78_" class="st1" d="M58.7,59.6h0.7v4.1c0,0.4,0,1.8-1.3,1.8c-1.2,0-1.3-1-1.3-1.8v-4.1h0.7v-2h-5.3v2H53v3.9
							c0,1.1,0.1,2.6,1.3,3.5c0,0,0,0,0.1,0.1c0.1,0,0.1,0.1,0.1,0.1c0.9,0.6,2.2,0.6,3,0.6c2.4,0,3.4-0.8,3.9-1.6
							c0.5-0.8,0.5-2,0.5-2.8v-3.8h0.7v-2h-4v2H58.7z"/>
						<path id="Path_79_" class="st1" d="M68.9,59.7L68.9,59.7C68.9,59.6,68.9,59.6,68.9,59.7L68.9,59.7z"/>
						<path id="Shape_4_" class="st1" d="M71.9,63.7c-0.2-0.5-0.5-0.9-1-1.3c-0.4-0.3-0.8-0.5-1.2-0.7l-1.3-0.6
							c-0.4-0.2-1.1-0.4-1.3-0.9c-0.2-0.9,0.9-1,1.5-0.8c0.4,0.1,0.7,0.3,0.7,0.7v0.4h2.2v-1.6v-1.3l0,0v-0.1h-2.2v0.7l0,0
							c-0.6-0.5-1.3-0.7-2.1-0.8l0,0c-0.2,0-0.3,0-0.5,0c-2.1,0-3.4,1.3-3.4,3c0,1.2,0.7,2.1,1.8,2.6l1.6,0.7
							c0.7,0.3,1.5,0.6,1.5,1.3c0,0.4-0.4,0.8-1.1,0.8c-0.7,0-1.4-0.4-1.4-1.7h-2.3v3.4h2.3v-0.4c0.8,0.5,1.8,0.8,2.7,0.7
							c1,0,1.9-0.2,2.7-0.8c0.8-0.6,1.2-1.6,1-2.6C72.1,64.2,72,63.9,71.9,63.7z"/>
						<polygon id="Path_80_" class="st1" points="81.7,60.7 81.7,57.6 76.7,57.6 72.8,57.6 72.8,57.6 72.8,59.6 73.5,59.6 
							73.5,65.6 72.8,65.6 72.8,67.6 81.7,67.6 81.7,64.3 79.4,64.3 79.4,65.6 77.4,65.6 77.4,63.6 79.1,63.6 79.1,61.7 77.4,61.7 
							77.4,59.6 79.4,59.6 79.4,60.7 						"/>
						<path id="Shape_5_" class="st1" d="M49.8,58.7L49.8,58.7c-0.2-0.2-0.3-0.3-0.4-0.3l-0.3-0.2L49,58.1c-0.4-0.2-0.9-0.4-1.3-0.5
							c-0.1,0-0.2,0-0.3-0.1c-0.1,0-0.1,0-0.2,0c-0.1,0-0.1,0-0.2,0h-0.3l0,0c-0.2,0-0.5,0-0.7,0c-1.4,0-2.8,0.5-3.9,1.4
							c-1.4,1.4-1.9,3.5-1.3,5.4c0.3,0.8,0.7,1.5,1.3,2.1c1.1,1,2.4,1.5,3.9,1.5s2.9-0.5,3.9-1.5s1.6-2.4,1.6-3.9
							C51.7,61,51,59.6,49.8,58.7z M46.2,65.7c-1.3,0-1.3-2.1-1.3-2.9c0-0.8,0-1.8,0.3-2.5c0.1-0.4,0.5-0.7,0.9-0.7
							c1.1,0,1.3,1.7,1.3,3.1C47.5,64,47.3,65.7,46.2,65.7L46.2,65.7z"/>
						<path id="Path_81_" class="st1" d="M36.9,4.1l18.7,36.4L74.3,4.3c0,0-9.6-4.3-19.2-4.2C46.1,0.2,36.9,4.1,36.9,4.1z"/>
						<path id="Path_82_" class="st2" d="M39.9,4.7c0.8-0.3,1.5-0.6,2.3-0.8c5.9-2,12.3-2.5,18.5-1.8c2.2,0.2,4.4,0.7,6.6,1.4
							c1,0.3,2,0.7,3,1.1c0.2,0.1,1.1,0.4,1,0.7C71,5.9,70.8,6.4,70.5,7s-0.6,1.2-0.8,1.8c-0.1,0.4-0.4,0.4-0.6,0.2
							c-2.1-1.6-3.9-4.3-6.9-4.4c-1.5-0.1-2.8,0.6-4.3,1c-1.7,0.2-3.3-0.5-4.8-0.9c-1.3-0.4-2.8-0.6-4.1-0.4
							c-1.5,0.3-2.4,1.3-3.3,2.4c-0.9,1.1-2.2,1.9-3.7,2.2c-0.6,0.1-0.7-0.3-0.8-0.6c-0.4-1-1-2-1.5-3C39.4,4.9,39.5,4.9,39.9,4.7z"
							/>
						<path id="Shape_6_" class="st1" d="M115.1,51.9c-0.1-1.8-1.1-2.6-2.1-2.7c-0.1,0-0.3,0-0.4,0c-0.2-0.8-0.4-1.6-0.6-2.4
							c-0.2-0.7-3.3-14.4-3.8-14.8c-0.4-0.5-1.1-0.7-1.7-0.7h-0.2c-0.3,0-12.5,1-13,1.2c-0.9,0.3-1.6,1-1.8,1.9
							c-0.1,0.6-0.8,3.1-0.9,3.4c-0.1,0.2-0.7,2.7-1,3.7c-0.3,1.3-0.7,2.6-1,3.9c-0.2,0.9-0.5,1.7-0.7,2.6h-0.1
							c-0.2,0-0.5,0-0.7,0.1l0,0c0-0.5-0.2-0.9-0.4-1.3c-0.4-0.6-1.1-1-1.8-1c0,0-3.7,0-4.4,0l0.5-0.5c0.2-0.3,3.4-3.5,4.2-4.3
							c1.1-1.1,1.4-1.9,1.4-3.6c0-0.5,0.3-2.6-0.6-3.5c-0.5-0.6-1.2-0.9-2-0.8c0,0-15.4,0.6-17.9,0.6c-0.5,0-0.9,0.1-1.4,0.2
							s-0.9,0.5-1.2,0.9c-0.1-0.2-0.2-0.3-0.3-0.5c-0.5-0.5-1.5-0.5-2.1-0.5c-1.2-0.1-2.9,0-3.9,0.7c-0.4,0.3-0.7,0.7-0.9,1.1
							l-0.6,0.5l-0.3-0.6c-0.7-1.5-1.6-1.6-3.6-1.6c-0.5,0-8.9-0.3-8.9-0.3c-0.2-0.1-0.3-0.5-1-0.5c-0.7,0-1.1,0.2-1.3,0.6
							c-0.6-0.5-1.4-0.6-2-0.6c-0.1,0-11.7-0.7-11.9-0.7c-1,0-1.9,0.8-1.9,1.8c0,0,0,0.1,0,0.3c-0.2-0.2-0.3-0.3-0.5-0.5
							c-1.8-1.6-4.2-1.9-5.9-2c-4.1-0.4-14.8-1.5-15.5-1.5c-1,0-1.8,0.3-2.3,0.9C0.2,31.9,0,32.6,0,33.3c0.1,1,0.2,5,0.8,5.6
							c0.4,0.4,0.9,0.6,1.5,0.6c-0.1,1.7,0,8.8,0,9.6c-0.5,0.1-1.5,0.2-2,0.9c-0.5,0.7-0.1,6,0.1,6.5c0.6,1.4,1.8,1.4,2.7,1.4
							c2.2,0,11.6-1,12.2-1.3l0.1-0.1c0.8-0.4,1.3-1.3,1.2-2.2c0-0.2-0.2-3.2-0.2-3.5c0-0.7-0.3-1.3-0.7-1.8
							c-0.2-0.2-0.2-0.5-0.6-0.6h0.8c0,0,2.2,0,2.7-0.1c0.3,0,1.8-0.2,2-0.2c1.3-0.2,2.5-0.7,3.5-1.5c1.3-0.9,2-2.3,2.1-3.9
							c0-0.7,0-1.5,0-2.2l0,0c0.3,0.1,0.5,0.2,0.8,0.2c0,0.9,0,1.7,0,2.5s0,1.7,0,2.6c0,0.3,0,0.7,0,1c0,0.3,0,0.7,0,1
							c-0.6,0-1.3,0.1-1.7,0.6c-0.4,0.3-0.7,1.1-0.7,2.2c0.1,0.8,0,3,0,3.2c-0.1,1.2,0.8,2.2,2,2.3c0.1,0,0.1,0,0.2,0h0.1
							c0.3,0,12.2-0.5,12.6-0.7c0.2-0.1,0.4-0.2,0.6-0.3c0.2-0.1,0.3-0.3,0.5-0.4c0.4,0.4,0.9,0.7,1.5,0.7l0,0
							c2.4,0,18-0.3,18.4-0.2c0.3,0.1,1.9,0.1,2.8-0.5c0.7,0.6,1.7,0.5,2.7,0.5c0.6,0,17.4,0.7,18.1,0.7c0.2,0,0.5,0,0.7-0.1
							c0.3,0,0.6-0.1,0.9-0.3c0.3,0.2,0.6,0.4,0.9,0.5c0.3,0.1,0.7,0.1,1,0.1c0.3,0,5.7,0.3,5.8,0.3h3.4c0.4,0,0.8-0.1,1.1-0.4
							c0.6-0.4,0.9-1.1,0.9-1.9c0.2-0.7,0.3-1.3,0.4-2c0-0.2,0-0.3,0.1-0.5c0.4,0,0.7,0,1.1,0.1c0,0.2,0.1,0.5,0.1,0.7
							c0.1,0.5,0.2,0.9,0.2,1.4c0.2,2.9,1.7,3.4,2.6,3.4l1.1,0.1c5.3,0.7,7.4,1,8,1c0.2,0,0.8,0.1,1.2,0
							C115.4,57.5,115.1,52.5,115.1,51.9z M45.2,43.7c0,0-3.8,3.6-4.5,4.5c-0.4-0.4-1-0.6-1.5-0.6h-0.1c0-0.8,0-2.3,0-5.2
							c0-0.4,0-0.9,0-1.3c0.3,0,0.6-0.1,0.9-0.2c0.1,0,0.2-0.1,0.3-0.1c0,0.1,0,0.1,0,0.2c0.3,1.8,1.8,1.8,2,1.8s3.3-0.1,4.1-0.1
							L45.2,43.7z M67.2,44.4L67.2,44.4c-0.3,0.3-0.5,0.5-0.6,0.7l0,0c-0.1,0.1-0.2,0.2-0.2,0.2l-0.1,0.1c-0.2,0.1-0.3,0.3-0.4,0.4
							c-0.2,0.1-0.3,0.3-0.5,0.5c-0.2,0.1-0.3,0.3-0.4,0.4l0,0l0,0l0,0l0,0c-0.1,0.1-0.2,0.1-0.2,0.2l0,0L64.7,47l0,0
							c-0.1,0-0.1,0.1-0.2,0.1c-0.1-0.4-0.3-0.8-0.5-1.1c-0.4-0.5-1.1-0.7-1.7-0.7h-4.2l1.7-1.7c0.2-0.2,0.6-0.5,1-0.8
							c0.9-0.7,2-1.6,2.6-2.6c0,0.1,0,0.1,0,0.2c0.1,1.2,1.1,2,2.3,2h0.1c1.2,0,2.4,0,3.5,0C68.3,43.2,67.7,43.8,67.2,44.4
							L67.2,44.4z"/>
						<path id="Path_83_" class="st2" d="M85.1,53.3c0,0.4-0.1,0.5-0.5,0.5c-0.4,0.2-19.4-0.5-19.9-0.6c-0.4-0.1-0.2-2.6-0.2-3.5
							c0-0.2,0.1-0.4,0.3-0.5c0.8-0.7,10.1-9.8,10.3-10.2c-1.7,0.1-2.5,0.1-3.8,0.1c0,0.4,0.1,0.8,0.1,1.1c0,0.2-0.1,0.2-0.2,0.3
							c-0.4,0.1-4.3,0.1-5.9,0.1c-0.3,0-0.4-0.1-0.4-0.4s0.1-3.2,0-4.4c-0.1-0.7,1-0.7,1.5-0.7c1.6,0,17.4-0.5,17.5-0.5
							c1.3-0.1,0.9,1.9,0.8,2.5c-0.1,0.9-0.3,1.6-0.9,2.2c-1.2,1.2-2.4,2.4-3.5,3.6c-0.8,0.8-1.5,1.6-2.3,2.3
							c-1.3,1.2-2.4,2.4-3.7,3.6c-0.2,0.2-0.2,0.3-0.3,0.4c-0.1,0.1-0.1,0.1-0.1,0.2s0.2,0.1,0.3,0.1c0.4,0,0.9,0,1.3,0h2.7
							c0.1,0-0.1-1.2-0.1-1.4c0.1-0.7,0.9-0.6,1.4-0.6c0.3,0,4.5,0.1,5.2,0c0.1,0,0.3,0,0.3,0.2c0.1,0.1,0.1,0.3,0.1,0.4
							C85.1,49,85,52.4,85.1,53.3z"/>
						<path id="Path_84_" class="st2" d="M42.3,53.3c-0.2,0-0.4-0.5-0.4-0.7c0-0.7,0-1.4,0-2c0-0.7-0.1-0.8,0.2-1.3
							c0.3-0.5,1-1,1.4-1.4l2.9-2.9l2.9-2.9c0.9-0.9,2.1-1.8,2.8-2.8c-0.5-0.5-3.8-0.3-3.7,0.7c0,0.1,0,0.5-0.2,0.5
							c-0.8,0.1-5.3,0.2-5.7,0.1c-0.2,0-0.4-0.1-0.5-0.3c-0.1-0.3,0-3.9,0-4.8c0-0.2,0-0.4,0-0.6c0-0.1,0.5-0.1,0.8-0.1
							c1.9,0,3.7,0.1,5.6,0.1c0.6,0,4.6-0.4,5.2,1.1c0.6,1.4,1.3,2.7,2,4.1c0.2-0.5,1.7-3.4,2.1-4.1c0.1-0.2,0.2-0.4,0.4-0.7
							c0.3-0.5,1.8-0.3,2.7-0.4c0.3,0,0.6,0,0.9,0c0,0,0.1,3.3,0,3.6C61.3,39.8,53.4,46.7,51,49h4.4c0.3-0.6-0.3-1.4,0.3-1.8
							c0.2-0.1,0.4-0.1,0.6-0.1H62c0.2-0.1,0.3,0,0.4,0.2c0,0.1,0,0.1,0,0.2c0,1.9,0.1,5.4,0,5.6C62.3,53.5,48.6,53.3,42.3,53.3z"/>
						<path id="Path_85_" class="st2" d="M39.3,53.4c-0.1,0-0.1,0.1-0.2,0.1c-0.6,0.2-11.8,0.6-12.1,0.6c-0.2,0-0.3-0.1-0.3-0.3
							c0-0.6,0-3.3,0-3.5c0.1-0.3,0.3-0.5,0.7-0.5c1.2,0,1.6,0.3,1.7-1c0-1,0-2,0-2.9c0-2.2,0-4.5,0-6.7c0-0.3-0.1-0.4-0.4-0.3
							c-0.5,0-1.3,0-1.8,0c-0.8,0-0.8-4.4-0.1-4.5c1.7-0.1,9.9,0.4,11.8,0.7c0.9,0.1,1.2,0,1.2,0.9c0,0.9,0,1.8,0,2.7
							c0,0.3-0.3,0.5-0.5,0.4c-0.1,0.2-1.4,0-2,0c-0.1,0-0.1,9.3,0,9.6c0.1,1.1,1.1,0.9,1.9,0.8c0.3,0,0.4,0.1,0.4,0.4
							c0,0.7,0,1.4,0,2.1C39.5,52.7,39.7,53.2,39.3,53.4z"/>
						<path id="Path_86_" class="st2" d="M2.1,55.8c-0.3-1.5-0.4-2.9-0.4-4.4c0-0.6,2.2-0.4,2.7-0.6c-0.1-2-0.1-10.4,0-12.8
							c0-0.2,0-0.3-0.3-0.4c-0.9-0.1-2,0.5-2.1-0.8c-0.1-1.1-0.5-4.1,0.1-4.3c0.4-0.2,1.3,0,1.7,0s0.8,0.1,1.2,0.2
							c4.4,0.4,8.9,0.8,13.3,1.3c1.7,0.2,3.5,0.4,4.8,1.5c1.1,1,1.3,2.3,1.3,3.7c0,1.7,0.4,3.5-0.6,5c-1.8,2.9-5.8,2.5-8.7,2.3
							c-0.2,0-2.6-0.2-2.6,0c-0.1,0.8,0,3.3-0.1,3.7c0,0.3,0.1,0.3,0.3,0.3c0.5-0.1,1.1-0.1,1.6-0.2c0.5-0.1,0.5,0,0.5,0.5
							c0,1,0,3.4,0,3.7c0,0.2,0,0.4-0.2,0.5C14.3,55.1,2.3,56.8,2.1,55.8z"/>
						<path id="Path_87_" class="st2" d="M97.7,50.5c0-0.3,0.1-1,0.4-0.9c0.3,0,2.4,0.2,3.7,0.2c0.4,0,0.5,0.1,0.5,0.6
							c0.1,1.1,0.4,2.1,0.5,3.2c0.1,0.7,0.2,1.7,0.9,1.6c0.1,0,8.8,1.2,9,1.1c0.6-0.2,1-5.2,0.1-5.3c-0.6-0.1-1.1-0.1-1.7,0
							c-0.1-0.4-0.1-0.9-0.2-1.3c-0.4-1.6-3.8-15.8-3.8-16.1s-0.1-0.5-0.5-0.5c-0.5,0-6.6,0.6-7.4,0.7c-1.2,0.1-4,0.3-4.3,0.3
							c-0.4,0-0.8,0-1.1,0.3c-0.2,0.1-3.9,14.1-4.2,15.4c0,0.1-0.9,0-1,0c-1.1-0.1-1.4-0.1-1.4,0.1c0,0.5,0,3.1,0,3.8
							c0,0.2,0.2,0.3,0.4,0.3c0.5,0.2,9.4,0.6,9.5,0.6C97.2,54.7,97.5,51.7,97.7,50.5z"/>
						<path id="Path_88_" class="st1" d="M101.3,45.9c-1-0.1-1.9-0.1-2.9,0c-0.5,0.1-0.6,0-0.5-0.5c0.5-2.4,0.8-4.8,1.2-7.2
							c0-0.3,0.2-1.2,0.4-0.8C99.6,37.9,101.7,45.9,101.3,45.9z"/>
						<path id="Path_89_" class="st1" d="M15.9,42.7c-0.2,0.2-0.7,0.1-0.9,0.1h-1.6c-0.2,0-0.5,0-0.8,0c-0.3,0-0.6,0-0.5-0.4
							c0-1.2,0-2.4-0.1-3.7c0-0.2,0-0.4,0.2-0.5c0.2-0.1,2.8,0.2,3.4,0.2c0.3,0,0.4,0.1,0.4,0.4C16,39.3,16.1,42.3,15.9,42.7
							C15.9,42.6,15.9,42.6,15.9,42.7z"/>
						<path id="Path_90_" class="st2" d="M58.6,30.5c-1,2-2.8,7.2-2.8,7.2s-0.9-2.2-1.1-2.6c-1.6-3.3-11.8-23.4-12.2-24.3
							c-0.1-0.2-0.2-0.4-0.3-0.7c-0.3-0.6-0.2-0.7,0.4-0.7c0.7,0,1.2-0.3,1.8-0.6c1.9-0.7,3-2.9,5.3-2.9c2.7,0,5.3,1.5,8,0.8
							c2.4-0.6,5-2.2,7.2-0.2c1.2,1.1,2.6,2.2,4,3.1c0.2,0.1,0.2,0.3,0.1,0.4l0,0c-0.7,1.2-1.3,2.6-1.9,3.9c-0.5,1-1.1,2-1.5,3
							c-1.5,3-3,6-4.5,9C60.1,27.5,59.3,29,58.6,30.5z"/>
						<path id="Path_91_" class="st1" d="M61.7,7c1.3,0,2.3,0.5,3,1.4c0.3,0.4,0.6,0.8,0.6,1.3c0,0.1,0.1,0.2-0.1,0.3
							c-0.1,0.1-0.2,0-0.3-0.1c-1.3-1.4-3-2.2-4.9-1.7c-0.2,0.1-0.9,0.3-0.5-0.2C60,7.4,60.9,7,61.7,7z"/>
						<path id="Path_92_" class="st1" d="M57.9,19.3c0.1,0.1,0.2,0.3,0.2,0.4c0.5,1.5,2.6,0.4,3.4-0.1c0.5-0.3,1-0.6,1.4-1
							c0.1,0,0.1-0.1,0.2-0.1c0.1,0.2,0,0.4-0.1,0.6c-0.4,0.7-1.1,1.2-1.8,1.6c-0.6,0.3-1.3,0.5-1.9,0.6c-0.6,0.1-1-0.3-1.4-0.7
							c-0.3-0.3-0.3-0.8-0.1-1.3H57.9z"/>
						<path id="Path_93_" class="st1" d="M56.7,26.2c0.2,0.3,0.3,0.6,0.3,1c-0.1,1-0.7,1.8-1.6,2.2c-0.5,0.3-1.6-0.3-1.7-0.9
							c0-0.1,0-0.2,0.1-0.2c0.1,0,0.2-0.1,0.4,0c1.1,0.7,2.1-1,2.4-1.8C56.6,26.4,56.6,26.3,56.7,26.2z"/>
						<path id="Path_94_" class="st1" d="M57.3,17.3c-0.1,0.1-0.2,0.2-0.4,0.3c-1.1,0.3-2.2,0.3-3.1-0.5c-0.5-0.5-0.6-1.2-0.3-1.9
							c0.1-0.2,0.2-0.4,0.4-0.6c0.1-0.1,0.1-0.2,0.2-0.2c0.2,0,0.1,0.2,0.1,0.3C53.4,16.9,55.9,16.9,57.3,17.3z"/>
						<path id="Path_95_" class="st4" d="M45,12.7c0-1.2,0.5-2.3,1.5-3C47,9.3,47.7,9,48.3,8.9c1.7-0.3,3.2,0.1,4.3,1.5
							c1,1.2,1.2,2.8,0.4,4.1c-1,1.8-3.1,2.7-5.1,2.1c-1.3-0.4-2.3-1.3-2.8-2.6C45.1,13.6,45,13.1,45,12.7z"/>
						<path id="Path_96_" class="st4" d="M62,9.6c1.1,0.2,2.1,0.8,2.7,1.7c0.5,0.6,0.7,1.4,0.7,2.2c0,1.2-0.5,2.3-1.5,3
							c-1,0.8-2.4,1.1-3.6,0.7c-1.4-0.4-2.6-1.2-3-2.7c-0.4-1.5,0-2.8,1.2-3.9C59.3,9.9,60.3,9.5,62,9.6z"/>
						<path id="Path_97_" class="st4" d="M53.5,19.5c1.5,0,2.8,0.7,3.5,2.1c0.3,0.7,0.1,2.1-0.3,2.7c-0.5,0.9-1.4,1.5-2.4,1.8
							c-1.6,0.4-3.4-0.3-4-1.7c-0.8-1.8-0.4-4.2,2-4.7C52.7,19.6,53.1,19.5,53.5,19.5z"/>
					</g>
				</g>
			</g>
		</g>
	</g>
</g>
</svg>
